<?xml version="1.0" standalone="no"?>
<!DOCTYPE svg PUBLIC "-//W3C//DTD SVG 20010904//EN"
 "http://www.w3.org/TR/2001/REC-SVG-20010904/DTD/svg10.dtd">
<svg version="1.0" xmlns="http://www.w3.org/2000/svg"
 width="37.000000pt" height="37.000000pt" viewBox="0 0 37.000000 37.000000"
 preserveAspectRatio="xMidYMid meet">
<metadata>
Created by potrace 1.16, written by Peter Selinger 2001-2019
</metadata>
<g transform="translate(0.000000,37.000000) scale(0.003426,-0.003426)"
fill="#000000" stroke="none">
<path d="M3875 8110 c-65 -31 -89 -51 -147 -119 -31 -36 -38 -52 -38 -87 0
-24 4 -46 10 -49 40 -25 118 3 167 60 18 20 37 33 43 30 23 -14 27 -48 8 -83
-43 -85 -6 -110 117 -77 50 12 61 12 105 -2 27 -9 57 -24 66 -34 15 -17 15
-21 -5 -64 -24 -52 -26 -68 -8 -83 13 -11 29 -10 104 6 32 7 47 6 63 -5 33
-23 60 -24 112 -1 27 11 52 18 55 14 4 -4 6 -25 4 -46 -2 -27 4 -51 18 -74 28
-44 26 -73 -5 -120 -20 -29 -25 -45 -20 -71 8 -40 36 -50 112 -40 130 17 142
16 179 -16 42 -37 76 -44 115 -24 40 21 51 45 44 97 -7 49 -40 78 -112 97 -46
13 -102 73 -146 158 -15 28 -33 57 -41 63 -14 12 -71 11 -98 -2 -30 -15 -35 0
-15 41 34 70 -3 121 -93 126 -55 3 -79 18 -79 49 0 15 -16 34 -46 57 -25 19
-49 34 -52 35 -4 0 -14 4 -24 8 -9 4 -37 5 -63 2 -51 -5 -85 16 -85 54 0 51
-49 101 -115 116 -55 14 -74 11 -130 -16z"/>
<path d="M6803 8127 c-2 -4 -19 -13 -36 -21 -44 -18 -67 -47 -74 -92 -9 -57
-16 -62 -86 -59 -53 2 -68 -2 -101 -24 -21 -14 -46 -30 -55 -36 -23 -14 -31
-27 -31 -52 0 -28 -10 -34 -72 -40 -30 -3 -64 -14 -81 -27 -26 -19 -28 -25
-24 -64 4 -40 47 -104 66 -99 3 1 17 -5 31 -13 34 -18 92 -21 110 -5 10 9 31
12 60 9 106 -11 115 -10 118 13 2 12 -4 36 -13 53 -25 48 -13 78 41 101 59 26
89 26 171 -3 68 -24 105 27 68 92 -20 36 -18 58 7 71 19 10 25 8 52 -23 17
-20 42 -42 56 -50 31 -18 96 -23 105 -8 13 20 7 76 -10 111 -18 36 -83 109
-97 109 -5 0 -26 11 -48 25 -22 14 -40 22 -40 19 0 -4 -7 -1 -15 6 -16 13 -94
19 -102 7z"/>
<path d="M3583 7705 c-26 -26 -33 -41 -33 -71 0 -47 32 -96 80 -123 32 -18 37
-18 63 -4 16 8 31 12 35 9 3 -4 5 -30 3 -60 -2 -52 -1 -54 45 -94 51 -46 82
-49 130 -14 44 32 43 122 -2 177 -21 27 -29 30 -81 30 l-58 0 -5 55 c-6 58
-30 106 -59 115 -56 18 -85 13 -118 -20z"/>
<path d="M7142 7732 c-71 -7 -123 -141 -72 -187 31 -28 13 -36 -25 -11 -18 13
-44 22 -57 21 -13 -1 -29 -3 -36 -4 -7 0 -26 -16 -43 -33 -25 -28 -29 -40 -29
-88 0 -47 4 -60 25 -80 14 -13 25 -20 25 -16 0 3 13 0 29 -9 29 -14 30 -14 78
29 45 41 48 46 49 97 0 55 10 67 41 50 25 -13 93 17 116 52 20 31 22 102 4
136 -15 28 -61 47 -105 43z"/>
<path d="M6130 7639 c0 -5 -11 -27 -25 -47 -14 -20 -25 -44 -25 -54 0 -9 -10
-24 -21 -32 -12 -8 -29 -27 -39 -43 -11 -19 -33 -34 -61 -43 -24 -8 -61 -24
-81 -37 -36 -22 -38 -26 -38 -76 0 -43 5 -58 23 -75 36 -34 86 -29 135 11 42
35 59 38 172 22 24 -4 47 -7 50 -7 68 -6 92 59 44 123 -29 39 -27 72 7 120 32
46 10 128 -37 135 -73 12 -104 12 -104 3z"/>
<path d="M3553 7470 c-45 -20 -53 -34 -53 -92 0 -44 24 -85 69 -117 53 -38
137 8 142 79 2 38 -19 98 -42 116 -35 28 -75 32 -116 14z"/>
<path d="M7171 7467 c-35 -18 -60 -56 -67 -104 -6 -40 -4 -45 34 -83 41 -41
85 -53 109 -29 17 17 26 -7 11 -30 -9 -15 -9 -28 2 -60 18 -55 40 -73 94 -75
38 -2 51 3 80 30 42 39 52 73 37 125 -18 61 -87 83 -150 49 -20 -10 -40 3 -21
15 5 3 10 33 10 66 0 51 -4 63 -24 82 -28 26 -80 33 -115 14z"/>
<path d="M3380 7312 c-30 -9 -50 -46 -50 -95 0 -42 5 -54 33 -81 26 -27 41
-33 82 -35 44 -1 54 2 77 26 15 15 29 45 33 65 6 34 4 40 -39 82 -39 39 -51
46 -83 44 -21 -1 -45 -3 -53 -6z"/>
<path d="M3129 7254 c-69 -28 -76 -137 -11 -180 33 -22 45 -26 97 -28 39 -1
40 -2 37 -34 -8 -79 39 -136 116 -141 35 -2 47 2 71 27 40 39 48 75 26 115
-28 52 -69 76 -127 73 -48 -2 -69 6 -48 19 5 3 10 22 10 41 0 26 -9 44 -37 75
-43 46 -80 55 -134 33z"/>
<path d="M7595 7252 c-27 -6 -71 -48 -85 -83 -10 -23 -9 -34 4 -60 16 -33 13
-55 -7 -42 -7 5 -34 8 -60 9 -43 0 -51 -3 -82 -38 -47 -51 -45 -108 5 -158 27
-27 103 -28 127 -1 9 11 20 18 24 15 14 -9 32 40 33 91 l1 50 54 1 c39 1 56 6
63 18 5 9 16 16 24 16 8 0 19 12 24 26 36 93 -31 177 -125 156z"/>
<path d="M5045 7243 c-54 -10 -67 -15 -85 -33 -23 -23 -27 -89 -8 -108 9 -9 7
-19 -11 -43 -18 -25 -22 -38 -16 -67 9 -49 10 -47 -33 -48 -63 -1 -67 -3 -105
-38 -29 -26 -37 -41 -37 -67 1 -37 37 -102 60 -108 73 -18 160 25 160 80 0 15
5 31 11 35 16 9 90 18 161 18 49 1 61 -3 86 -27 16 -16 38 -30 48 -32 11 -2
20 -4 22 -4 2 -1 -6 -16 -17 -35 -12 -18 -21 -41 -21 -50 0 -9 -7 -19 -15 -22
-8 -3 -23 -21 -34 -40 -19 -32 -55 -54 -91 -58 -26 -2 -89 -46 -95 -67 -4 -11
-5 -36 -4 -57 2 -28 0 -36 -11 -33 -56 15 -70 13 -99 -18 -31 -33 -41 -68 -41
-144 0 -40 8 -64 40 -119 22 -39 40 -73 40 -77 0 -13 92 -111 105 -111 7 0 28
-19 47 -42 18 -24 47 -54 63 -68 35 -29 69 -65 108 -113 l27 -35 -30 -25 c-16
-14 -30 -30 -30 -36 0 -6 -24 -28 -52 -49 -29 -22 -64 -51 -77 -65 l-23 -26
-47 37 c-25 21 -95 89 -156 152 -100 105 -170 169 -186 170 -4 0 -33 16 -65
35 -48 29 -67 35 -113 35 -65 0 -134 -28 -151 -60 -6 -12 -10 -37 -8 -57 l3
-36 -49 -1 c-47 -1 -50 -3 -77 -46 -16 -25 -32 -60 -35 -78 -4 -19 -17 -40
-31 -50 -14 -9 -35 -27 -48 -39 -12 -13 -28 -23 -35 -23 -7 0 -28 -9 -46 -21
l-34 -20 -12 28 c-7 15 -25 43 -40 61 -21 25 -28 43 -28 75 0 57 23 139 40
148 8 3 27 12 42 19 37 17 57 50 64 103 6 39 3 48 -22 76 -41 44 -83 54 -122
29 -46 -29 -76 -82 -69 -123 7 -41 -15 -60 -44 -42 -14 9 -28 7 -61 -10 -43
-20 -44 -20 -67 -2 -21 17 -25 17 -59 3 -52 -21 -55 -27 -60 -91 l-4 -58 76
-44 c42 -24 76 -47 76 -52 0 -5 6 -9 13 -9 22 0 55 -42 66 -87 7 -23 26 -58
44 -77 33 -35 55 -39 117 -25 16 4 26 -32 15 -58 -4 -13 -8 -14 -17 -5 -7 7
-31 12 -55 12 -39 0 -45 -4 -66 -37 -13 -21 -31 -58 -39 -83 -15 -47 -37 -66
-143 -130 -88 -52 -88 -52 -80 -111 12 -85 64 -117 133 -80 19 10 27 9 47 -7
22 -18 44 -20 84 -11 11 3 16 -9 19 -46 4 -53 28 -91 75 -120 57 -34 137 15
137 85 0 66 -36 127 -79 133 -31 5 -37 15 -51 103 -11 61 -10 74 4 101 9 18
21 35 27 39 6 3 17 22 25 40 16 39 29 42 64 14 14 -11 30 -20 37 -20 6 0 19
-10 27 -22 9 -12 16 -18 16 -13 0 24 59 -52 69 -88 5 -23 23 -57 39 -76 24
-29 35 -35 73 -35 l44 -1 -3 -42 c-3 -37 0 -44 31 -69 39 -30 50 -34 121 -38
91 -4 205 68 368 235 68 69 142 143 165 164 l43 37 104 -107 105 -107 -32 -34
c-18 -18 -41 -44 -53 -56 -11 -13 -69 -71 -130 -129 -79 -76 -123 -129 -161
-191 -50 -81 -53 -91 -53 -153 0 -110 48 -183 110 -165 36 10 40 6 40 -46 0
-37 5 -47 35 -71 19 -15 37 -27 40 -25 3 1 18 -4 34 -12 16 -9 31 -13 34 -10
2 3 15 -9 28 -26 13 -17 34 -42 47 -54 12 -13 22 -29 22 -35 0 -6 7 -23 17
-37 16 -25 16 -26 -33 -69 -57 -51 -74 -55 -189 -40 -66 9 -81 18 -88 54 -13
64 -104 108 -164 79 -35 -16 -66 -77 -57 -112 3 -14 23 -42 43 -61 33 -33 41
-36 86 -34 l50 3 -3 -42 c-3 -30 2 -52 17 -76 19 -29 19 -35 6 -46 -18 -15
-19 -45 -4 -88 11 -31 24 -40 69 -48 14 -2 35 -6 47 -9 17 -4 27 5 52 45 17
28 31 57 31 66 0 14 91 113 107 115 4 1 18 3 30 4 12 1 40 17 63 35 40 32 42
35 38 79 -3 25 -6 53 -9 61 -3 11 4 15 26 15 29 0 30 -1 32 -55 2 -50 5 -58
40 -87 20 -17 40 -31 43 -31 29 4 75 -20 98 -51 15 -20 31 -38 35 -39 4 -2 19
-27 33 -55 42 -83 57 -96 107 -86 24 4 47 9 52 11 13 4 15 -12 4 -41 -17 -43
0 -88 44 -124 23 -17 43 -31 44 -29 2 1 15 -1 31 -4 32 -8 72 -42 72 -61 0 -8
7 -16 15 -19 8 -4 31 -37 51 -75 20 -38 42 -69 48 -70 27 -3 72 4 89 12 26 15
39 2 23 -24 -29 -46 -28 -74 3 -109 25 -28 36 -33 80 -34 55 -2 81 -16 81 -44
0 -26 11 -50 22 -50 5 0 25 -12 44 -26 19 -15 34 -23 34 -19 0 4 7 2 15 -5 9
-7 33 -10 65 -7 62 6 84 -10 93 -70 4 -22 17 -48 29 -60 24 -22 105 -53 138
-53 27 0 140 61 176 96 63 60 85 99 82 145 -3 37 -7 44 -31 50 -40 11 -95 -15
-138 -64 -32 -36 -39 -40 -53 -28 -18 15 -21 51 -7 66 18 19 23 81 8 93 -20
17 -58 18 -93 4 -69 -28 -156 -14 -201 31 -14 14 -14 20 6 61 24 52 26 72 9
83 -18 10 -37 10 -78 -2 -44 -13 -59 -12 -87 3 -13 7 -23 10 -23 7 0 -3 -8 -1
-18 4 -12 6 -34 2 -74 -14 -31 -13 -59 -21 -61 -19 -2 3 -2 24 0 47 4 32 0 52
-16 77 -27 45 -26 72 4 120 30 48 32 73 6 99 -16 16 -29 19 -68 14 -145 -15
-171 -13 -204 15 -39 33 -74 42 -118 31 -20 -5 -22 127 -2 159 8 13 11 33 7
50 -14 57 -15 56 43 53 50 -2 56 0 92 35 47 46 52 94 17 140 -12 16 -23 31
-25 33 -2 3 -23 6 -47 7 -32 2 -52 -3 -69 -17 -14 -10 -30 -19 -36 -19 -6 0
-14 -14 -18 -30 -7 -35 -17 -43 -58 -46 -16 -1 -50 -6 -75 -11 -54 -11 -94 -2
-129 30 -14 13 -34 27 -43 30 -22 8 -23 21 -3 37 8 7 15 21 15 32 0 21 91 118
112 119 31 2 51 9 67 23 10 9 22 16 27 16 18 0 35 43 33 83 -2 32 1 41 12 39
45 -12 59 -10 84 10 37 29 55 76 55 145 0 46 -7 69 -31 113 -18 30 -38 68 -47
84 -8 16 -93 107 -188 202 l-174 174 57 58 c32 32 81 80 110 106 l52 47 41
-40 c23 -23 46 -38 51 -35 5 3 13 -4 17 -15 8 -23 243 -264 250 -257 2 3 22
-9 45 -25 22 -16 44 -29 49 -29 6 0 20 -8 33 -18 18 -14 38 -18 94 -16 60 2
77 6 106 28 36 28 48 54 43 96 -3 23 0 25 42 27 37 1 50 7 72 33 14 18 32 52
40 77 9 31 26 55 60 83 25 22 50 40 53 40 4 0 19 8 33 18 48 33 62 34 73 5 5
-14 21 -39 34 -55 29 -34 31 -77 11 -173 -12 -57 -14 -61 -52 -74 -55 -19 -78
-53 -79 -117 0 -41 5 -58 23 -77 12 -13 28 -24 35 -25 6 -1 26 -4 42 -7 23 -5
36 0 58 20 46 44 59 71 55 117 -3 41 -2 43 22 40 54 -5 67 -3 103 21 25 16 29
16 51 2 19 -12 30 -14 44 -6 11 6 22 8 25 5 2 -3 14 7 26 22 15 19 21 41 21
79 0 46 -3 53 -27 65 -16 8 -40 23 -55 33 -16 10 -28 15 -28 12 0 -4 -24 14
-54 39 -41 36 -56 57 -64 89 -6 23 -24 58 -40 77 -26 30 -34 34 -73 32 -24 -2
-49 -8 -55 -13 -15 -13 -29 6 -17 24 4 6 8 15 9 20 1 4 2 10 3 13 0 4 7 2 14
-3 6 -5 30 -9 52 -7 49 4 84 40 104 109 11 36 25 56 63 86 27 21 56 39 63 39
7 0 18 7 25 15 7 9 28 23 46 31 26 12 34 23 34 43 0 29 -16 89 -29 109 -11 18
-87 28 -104 13 -11 -8 -20 -6 -41 10 -18 14 -35 19 -54 16 -70 -14 -66 -16
-63 36 2 37 -3 56 -20 81 -47 68 -97 80 -151 35 -33 -26 -38 -36 -38 -71 0
-63 27 -108 77 -130 36 -16 43 -23 43 -48 0 -16 5 -52 11 -80 12 -57 7 -92
-19 -118 -9 -9 -25 -30 -35 -45 -21 -32 -30 -33 -65 -8 -15 10 -31 20 -37 20
-19 4 -106 83 -103 94 4 17 -39 101 -61 121 -10 9 -37 17 -62 19 l-44 2 3 41
c3 37 0 45 -35 73 -20 17 -49 31 -63 31 -14 0 -46 0 -71 0 -30 0 -61 -8 -90
-25 -24 -13 -62 -34 -84 -46 -22 -12 -98 -81 -170 -154 -71 -73 -149 -150
-173 -170 l-43 -38 -33 32 c-18 17 -35 29 -38 25 -4 -3 -24 18 -46 48 -22 29
-51 64 -66 77 l-26 24 35 41 c53 62 53 62 186 192 68 67 133 139 144 160 11
22 30 55 42 74 18 27 23 49 23 103 0 78 -16 125 -54 155 -21 16 -33 19 -56 12
-36 -10 -40 -6 -40 44 -1 45 -12 66 -50 87 -28 15 -24 14 -68 24 -36 8 -99 75
-133 141 -18 36 -18 40 -3 49 9 6 33 24 54 41 34 28 44 30 96 28 33 -1 68 -5
79 -8 11 -2 30 -5 43 -5 16 -1 26 -11 38 -40 19 -47 53 -72 106 -79 48 -5 84
17 104 64 19 45 10 76 -33 118 -31 30 -41 34 -86 33 l-51 0 3 42 c2 27 -3 51
-14 68 -14 21 -15 29 -5 48 24 45 -3 113 -49 122 -84 17 -87 16 -120 -35 -17
-27 -31 -56 -31 -65 0 -9 -9 -21 -20 -27 -11 -6 -27 -24 -35 -41 -15 -27 -43
-45 -88 -54 -9 -2 -35 -17 -57 -32 -39 -27 -40 -30 -38 -80 2 -59 -1 -65 -37
-68 -26 -3 -42 9 -25 20 13 8 13 91 0 116 -6 10 -17 19 -24 19 -8 0 -19 6 -25
14 -7 8 -30 17 -51 21 -45 8 -100 65 -143 150 -29 59 -55 83 -82 78z m597
-821 c20 -18 39 -26 69 -26 l40 -1 3 -80 c3 -100 -13 -150 -64 -200 -22 -22
-40 -44 -40 -50 0 -9 -110 -120 -225 -226 -21 -19 -21 -19 -54 15 -19 19 -39
34 -44 33 -6 -1 -16 9 -24 23 -7 14 -18 24 -23 22 -6 -1 -14 8 -19 20 -5 13
-24 37 -42 54 -67 62 -126 130 -143 162 -12 23 -16 55 -15 115 1 45 0 91 -2
102 -3 14 1 19 11 16 55 -15 67 -12 110 24 47 39 45 39 190 20 19 -3 69 1 110
8 85 15 120 9 162 -31z m-1152 -681 c79 5 107 2 161 -19 14 -6 94 -78 178
-160 l153 -150 -38 -51 c-21 -28 -46 -54 -56 -57 -10 -3 -18 -11 -18 -18 0 -8
-16 -24 -35 -37 -19 -13 -35 -30 -35 -36 0 -7 -13 -19 -29 -27 -16 -9 -42 -29
-57 -46 -58 -62 -90 -75 -189 -76 -49 0 -96 -3 -103 -5 -10 -3 -14 9 -16 38
-2 29 -12 57 -35 88 -30 42 -32 48 -25 107 9 89 9 153 0 223 -8 60 -8 61 28
104 29 35 37 52 36 80 -3 50 -3 50 23 45 12 -3 38 -5 57 -3z m1855 -1 c6 0 21
1 34 2 20 3 23 -2 25 -34 2 -20 11 -49 22 -64 49 -69 54 -100 32 -193 -9 -39
-8 -69 2 -134 11 -74 11 -86 -4 -115 -9 -18 -20 -32 -25 -32 -15 0 -33 -57
-30 -92 3 -25 0 -32 -11 -29 -26 7 -84 7 -105 1 -10 -4 -35 -3 -55 2 -19 5
-43 11 -54 13 -26 6 -252 213 -333 307 l-22 25 113 114 c230 231 244 241 356
232 25 -1 50 -3 55 -3z m-905 -195 c12 -13 26 -22 30 -20 8 5 34 -23 77 -85
l31 -45 -24 -30 c-33 -42 -42 -50 -104 -99 l-55 -43 -42 36 c-23 20 -62 61
-86 91 l-45 54 29 36 c49 60 132 130 155 130 6 0 21 -11 34 -25z m117 -715
c47 -47 91 -97 99 -113 8 -15 19 -25 24 -22 5 3 22 -14 37 -37 25 -39 28 -52
29 -138 1 -52 4 -102 5 -110 3 -9 -2 -14 -11 -12 -42 10 -73 3 -98 -20 -40
-38 -65 -47 -108 -42 -60 7 -81 12 -101 21 -10 5 -27 8 -38 7 -11 -1 -40 -5
-65 -8 -110 -15 -108 -15 -147 19 -42 35 -94 50 -112 32 -6 -6 -11 -9 -11 -6
-8 74 -5 181 6 212 19 55 227 287 305 340 l34 24 34 -31 c18 -17 72 -69 118
-116z"/>
<path d="M2829 7100 c-57 -35 -80 -61 -120 -135 -39 -73 -43 -138 -11 -201 29
-58 44 -68 108 -78 38 -6 44 -16 44 -79 0 -55 5 -70 40 -127 22 -36 42 -63 45
-62 3 2 19 -1 35 -7 27 -9 30 -15 31 -53 1 -24 1 -46 1 -49 -1 -4 13 -23 31
-43 30 -34 34 -36 67 -26 47 13 53 18 84 64 20 29 26 51 26 90 0 29 -5 57 -11
63 -11 11 -9 46 7 121 4 20 2 38 -6 47 -10 12 -18 12 -59 -5 -50 -19 -66 -20
-89 -6 -13 7 -32 46 -36 73 -1 7 -5 15 -8 18 -3 3 1 31 9 63 24 93 24 96 11
121 -16 29 -45 35 -75 16 -36 -24 -70 -25 -88 -5 -17 18 -16 20 18 40 48 29
82 99 70 149 -8 33 -12 36 -45 37 -23 1 -51 -8 -79 -26z"/>
<path d="M7866 7104 c-19 -18 -20 -70 -3 -100 21 -36 51 -70 70 -77 22 -8 22
-20 -1 -40 -20 -18 -35 -17 -79 6 -39 20 -43 20 -65 0 -22 -20 -23 -47 -3
-103 20 -58 19 -87 -8 -139 -31 -62 -46 -69 -98 -44 -23 11 -51 18 -61 15 -21
-5 -24 -42 -7 -92 10 -27 9 -42 -5 -81 -19 -51 -16 -90 10 -140 11 -22 11 -29
0 -38 -7 -6 -15 -8 -18 -5 -18 17 -69 14 -98 -7 -41 -31 -67 -31 -125 1 -41
22 -55 25 -77 18 -27 -9 -28 -13 -28 -71 0 -34 4 -78 10 -97 11 -38 -2 -97
-26 -116 -26 -20 -42 -77 -32 -111 11 -42 43 -63 92 -61 46 2 84 43 105 113
17 56 77 108 199 171 36 18 38 28 18 102 -12 48 -7 78 10 51 11 -18 73 -40 97
-34 33 9 57 55 57 108 0 43 16 70 44 73 6 0 19 2 29 2 9 1 17 7 17 14 0 6 6
19 14 27 39 45 55 89 49 143 -6 63 5 78 63 83 20 2 45 12 56 22 29 26 58 98
58 144 0 41 -46 145 -74 168 -9 8 -16 20 -16 28 0 8 -4 12 -9 9 -4 -3 -19 6
-32 20 -48 51 -104 67 -133 38z"/>
<path d="M4173 7050 c-25 -10 -53 -58 -53 -90 0 -12 7 -36 15 -54 39 -82 168
-89 200 -11 22 52 18 78 -18 120 -27 31 -40 38 -77 40 -25 2 -55 -1 -67 -5z"/>
<path d="M6522 7037 c-71 -50 -78 -113 -18 -173 29 -29 37 -32 77 -28 59 6
109 57 109 109 0 44 -23 92 -49 100 -52 16 -88 14 -119 -8z"/>
<path d="M4561 6799 c-36 -14 -50 -39 -51 -86 0 -45 16 -100 27 -89 3 3 15 -2
26 -11 12 -12 37 -18 70 -19 l51 -2 -2 -38 c-3 -39 24 -122 35 -110 4 3 15 -2
25 -11 11 -9 36 -17 60 -17 58 -1 101 41 102 101 1 36 -4 48 -35 78 -37 37
-94 52 -131 33 -18 -9 -35 6 -18 17 5 3 10 24 10 46 0 56 -53 114 -107 117
-21 0 -49 -3 -62 -9z"/>
<path d="M6170 6803 c-8 -3 -32 -22 -52 -41 -46 -43 -49 -80 -13 -127 29 -39
23 -51 -14 -25 -50 36 -101 28 -151 -22 -46 -45 -39 -123 14 -168 25 -20 98
-7 141 25 35 27 36 30 34 84 l-3 56 53 2 c113 6 170 110 103 193 -18 22 -79
34 -112 23z"/>
<path d="M3823 6692 c-12 -2 -33 -14 -47 -27 -21 -20 -26 -33 -26 -75 0 -47 3
-54 45 -95 41 -39 48 -43 75 -35 17 5 30 7 30 5 0 -2 13 8 29 23 48 44 45 128
-7 175 -23 21 -68 34 -99 29z"/>
<path d="M6935 6680 c-11 -4 -23 -6 -26 -4 -3 2 -17 -8 -30 -22 -30 -32 -42
-117 -21 -154 13 -24 57 -51 93 -57 9 -1 35 15 58 36 39 36 41 40 41 98 0 51
-4 63 -25 83 -14 13 -25 21 -25 17 0 -4 -10 -3 -22 2 -13 5 -32 5 -43 1z"/>
<path d="M4060 6306 c-42 -18 -59 -47 -60 -100 0 -44 4 -53 43 -91 32 -32 48
-42 67 -39 14 2 33 5 43 6 15 3 19 -5 21 -50 3 -45 9 -59 37 -88 42 -43 66
-50 112 -31 50 21 71 57 63 108 -13 81 -76 131 -137 110 -40 -14 -44 -10 -40
39 2 40 -20 100 -45 121 -23 19 -77 27 -104 15z"/>
<path d="M3435 6272 c-29 -34 -116 -32 -146 4 -17 21 -65 17 -94 -8 -16 -15
-28 -39 -34 -71 -8 -45 -7 -50 18 -73 14 -13 31 -24 38 -24 6 0 32 -16 57 -35
26 -19 50 -35 54 -35 18 0 50 -47 66 -96 26 -80 80 -121 131 -99 75 32 86 102
25 172 -30 34 -32 40 -26 87 20 168 20 163 -3 182 -30 26 -62 24 -86 -4z"/>
<path d="M6649 6288 c-31 -26 -52 -74 -54 -123 -2 -27 -3 -51 -4 -52 0 -1 -14
2 -31 7 -72 21 -140 -39 -140 -124 0 -49 34 -90 88 -105 29 -9 36 -6 77 32 41
38 46 47 47 87 0 25 -1 50 -2 55 -5 21 1 27 15 15 8 -7 15 -9 15 -6 0 4 8 2
18 -3 43 -23 132 53 132 114 0 35 -23 99 -32 90 -3 -3 -11 1 -18 10 -15 18
-90 20 -111 3z"/>
<path d="M3449 4962 c-10 -7 -19 -19 -19 -26 0 -6 -5 -17 -12 -24 -6 -6 -19
-33 -28 -59 -18 -52 -41 -72 -158 -139 -35 -20 -66 -42 -69 -50 -5 -15 12
-100 26 -122 4 -7 17 -14 29 -17 12 -2 27 -7 32 -10 6 -4 27 4 48 16 52 31 99
32 139 3 35 -26 54 -29 84 -14 15 9 19 21 19 68 0 31 -5 76 -10 99 -11 48 -2
81 35 125 29 34 33 84 10 128 -9 17 -23 30 -33 31 -9 0 -30 2 -45 3 -16 1 -37
-4 -48 -12z"/>
<path d="M7248 4950 c-40 -41 -38 -84 8 -143 36 -46 37 -48 28 -105 -4 -31 -9
-82 -10 -112 -1 -47 1 -56 20 -65 32 -17 62 -12 90 14 33 31 70 33 112 5 83
-56 154 -12 154 95 0 32 -20 61 -40 57 -3 0 -19 9 -37 22 -17 12 -34 22 -38
22 -4 0 -29 18 -56 41 -35 30 -52 52 -60 82 -9 34 -22 60 -55 105 -1 2 -21 5
-45 7 -36 3 -47 -1 -71 -25z"/>
<path d="M4250 4891 c-55 -36 -70 -62 -68 -121 2 -57 0 -59 -45 -46 -38 11
-83 -9 -113 -53 -26 -38 -30 -71 -14 -117 13 -36 37 -52 91 -59 38 -5 44 -2
74 31 35 38 49 91 35 129 -12 31 1 39 36 21 19 -11 33 -12 46 -5 10 5 18 7 18
3 0 -3 7 -1 15 6 8 7 15 9 15 4 0 -5 11 9 25 31 15 25 24 55 25 81 0 36 -5 47
-35 73 -20 17 -39 31 -43 32 -4 0 -14 2 -22 4 -8 1 -26 -5 -40 -14z"/>
<path d="M6483 4896 c-48 -22 -67 -57 -59 -111 4 -24 12 -47 17 -51 6 -3 14
-16 19 -28 4 -13 14 -24 22 -25 31 -4 94 -5 107 -1 12 4 14 -4 12 -38 -3 -58
30 -127 67 -138 65 -18 126 5 138 52 12 48 -3 105 -36 139 -28 29 -38 33 -82
32 l-50 -2 -2 54 c-3 45 -8 58 -37 86 -41 41 -74 49 -116 31z"/>
<path d="M7700 4567 c-20 -7 -48 -30 -67 -55 -28 -36 -33 -52 -33 -96 0 -28 5
-57 11 -63 11 -11 8 -60 -6 -129 -10 -48 12 -59 68 -35 58 25 83 18 108 -32
26 -50 26 -92 3 -158 -16 -45 -17 -53 -4 -76 18 -32 43 -37 89 -16 52 23 60
23 72 2 12 -23 5 -37 -25 -49 -33 -12 -68 -92 -60 -136 3 -19 11 -37 17 -41
18 -11 70 -4 87 12 9 8 21 15 26 15 19 0 82 75 115 135 43 78 43 142 3 210
-28 48 -57 66 -109 69 -30 1 -30 2 -33 66 -1 37 -11 82 -21 105 -20 43 -63 94
-81 96 -39 5 -50 17 -50 55 0 40 -20 92 -44 117 -20 20 -20 20 -66 4z"/>
<path d="M3036 4551 c-10 -11 -21 -44 -25 -78 -8 -69 -15 -83 -44 -83 -31 0
-39 -8 -81 -73 -33 -53 -36 -63 -30 -106 7 -50 -4 -83 -27 -87 -82 -14 -102
-27 -130 -89 -49 -107 11 -242 153 -343 11 -8 35 -14 55 -14 20 0 39 6 44 14
25 39 -3 122 -57 166 l-36 30 21 21 c18 18 25 20 44 9 12 -7 36 -18 54 -24 27
-10 35 -9 48 6 19 21 19 38 -1 106 -17 60 -14 103 10 150 27 52 50 60 96 34
38 -21 69 -23 77 -5 3 9 0 40 -7 69 -10 44 -10 57 4 90 22 53 20 72 -13 142
-29 62 -39 69 -106 80 -23 4 -36 0 -49 -15z"/>
<path d="M5938 4367 c-17 -17 -31 -44 -34 -68 -6 -36 -4 -42 37 -83 39 -39 48
-43 85 -41 23 1 46 5 52 9 6 3 13 2 16 -3 4 -5 2 -12 -4 -16 -5 -3 -10 -24
-10 -46 0 -32 7 -47 38 -80 31 -34 43 -40 79 -41 27 0 52 7 72 22 28 19 31 27
31 74 0 52 -6 66 -47 100 -27 22 -98 32 -117 16 -9 -7 -16 -7 -20 -1 -4 5 -2
12 4 16 14 9 12 75 -3 102 -21 37 -62 62 -108 65 -37 3 -48 -1 -71 -25z"/>
<path d="M4743 4368 c-54 -26 -64 -44 -62 -108 l3 -55 -56 -1 c-41 -1 -63 -7
-84 -23 -76 -60 -45 -191 46 -192 61 0 70 3 106 44 36 39 39 58 23 117 -3 12
7 15 53 15 52 1 61 4 93 35 93 90 -5 224 -122 168z"/>
<path d="M3830 4335 c-7 -8 -18 -15 -24 -15 -22 0 -46 -57 -46 -108 0 -44 4
-54 31 -76 43 -36 88 -35 134 5 33 29 35 35 35 93 0 67 -8 81 -63 104 -37 16
-52 15 -67 -3z"/>
<path d="M6885 4319 c-29 -26 -35 -38 -35 -70 0 -58 22 -103 60 -121 67 -32
134 -3 148 64 11 52 -11 105 -57 137 -41 29 -74 26 -116 -10z"/>
<path d="M6512 3959 c-25 -10 -52 -64 -52 -104 0 -33 66 -99 102 -102 15 -2
31 -3 35 -4 14 -4 58 18 73 36 8 9 14 38 14 66 0 42 -5 54 -31 81 -33 33 -96
45 -141 27z"/>
<path d="M4160 3930 c-36 -30 -48 -81 -30 -135 28 -84 158 -75 205 15 23 45
18 69 -24 111 -34 35 -44 39 -80 37 -25 -2 -52 -12 -71 -28z"/>
<path d="M3338 3931 c-7 -2 -21 -10 -30 -19 -10 -8 -18 -11 -18 -6 0 5 -6 0
-14 -11 -22 -33 -27 -87 -12 -117 16 -30 9 -42 -14 -27 -26 16 -86 10 -113
-11 -14 -11 -30 -20 -35 -20 -14 0 -25 -73 -17 -109 5 -24 55 -86 55 -68 0 4
10 3 23 -2 32 -12 75 8 115 54 28 31 32 42 26 69 -3 17 -10 36 -15 42 -14 17
0 23 31 14 16 -5 37 -7 47 -5 10 2 23 4 29 4 6 1 27 18 47 38 26 25 37 45 37
65 0 36 -40 108 -60 109 -8 0 -27 2 -42 3 -14 1 -32 0 -40 -3z"/>
<path d="M7378 3920 c-15 -11 -32 -36 -38 -56 -10 -30 -9 -41 5 -68 26 -49 75
-78 127 -76 59 2 62 2 50 -12 -46 -56 36 -172 118 -167 51 4 68 15 86 57 27
65 -10 144 -76 160 -8 2 -33 5 -55 6 -38 3 -40 4 -37 35 5 45 -15 97 -44 116
-42 27 -106 30 -136 5z"/>
<path d="M3420 3700 c-21 -5 -47 -22 -63 -42 -24 -28 -28 -39 -24 -78 7 -61
48 -99 103 -93 21 2 44 9 51 15 10 8 17 8 24 1 8 -8 7 -13 0 -17 -15 -10 -14
-109 2 -128 70 -89 193 -30 196 94 1 27 -54 102 -68 94 -4 -3 -13 -1 -21 4 -7
4 -24 4 -38 -1 -26 -10 -53 3 -33 15 24 15 4 95 -32 125 -21 16 -55 20 -97 11z"/>
<path d="M7288 3683 c-15 -16 -29 -44 -33 -63 -5 -30 0 -41 30 -79 19 -24 35
-40 35 -35 0 4 5 3 12 -4 7 -7 32 -12 55 -12 59 0 93 35 93 94 0 55 -18 88
-60 108 -54 26 -101 23 -132 -9z"/>
<path d="M4814 3553 c-48 -34 -50 -35 -119 -27 -102 10 -156 8 -166 -7 -16
-25 -9 -72 13 -96 31 -33 31 -93 -1 -127 -51 -54 -1 -146 80 -146 21 0 42 -1
46 -2 3 -2 21 25 39 59 56 109 115 168 177 177 8 1 31 14 51 29 32 25 36 33
36 76 0 37 -5 52 -24 70 -39 36 -76 35 -132 -6z"/>
<path d="M7185 3563 c-11 -3 -35 -16 -54 -30 -32 -25 -33 -28 -29 -80 8 -95
74 -147 148 -117 48 20 60 39 60 96 0 44 -4 53 -45 93 -24 25 -48 44 -52 44
-5 -1 -17 -4 -28 -6z"/>
<path d="M6915 3463 c-19 -13 -37 -32 -40 -44 -10 -30 3 -105 20 -119 8 -7 13
-16 10 -20 -12 -20 87 -34 134 -19 11 3 14 -7 12 -49 -2 -43 2 -61 23 -93 15
-21 34 -40 44 -40 9 -1 31 -3 47 -4 51 -5 95 45 95 106 0 68 -79 140 -136 124
-47 -14 -48 -13 -45 46 2 55 1 57 -42 95 -52 46 -75 49 -122 17z"/>
<path d="M3770 3444 c-44 -40 -58 -85 -42 -133 12 -33 5 -46 -14 -31 -34 29
-84 19 -136 -29 -24 -21 -28 -33 -28 -79 0 -47 4 -58 30 -82 23 -21 38 -27 67
-25 53 3 69 12 94 51 14 24 20 47 18 79 -2 24 -1 47 2 50 3 2 19 1 35 -4 37
-10 86 8 114 41 14 17 19 39 20 80 0 51 -3 59 -31 82 -17 14 -34 26 -37 27 -4
0 -17 2 -30 5 -15 3 -34 -7 -62 -32z"/>
<path d="M4202 3199 c-27 -10 -28 -36 -5 -84 22 -46 13 -62 -57 -96 -57 -27
-54 -27 -152 6 -72 25 -106 -21 -72 -96 16 -37 16 -40 -1 -59 -24 -27 -32 -25
-55 12 -25 42 -90 75 -135 70 -34 -4 -35 -5 -35 -51 0 -46 12 -71 60 -127 25
-29 110 -90 110 -78 0 3 12 -3 28 -14 58 -41 190 -4 217 62 8 18 16 46 18 62
4 28 5 29 68 32 35 1 71 5 79 8 8 3 15 4 15 2 0 -1 22 13 48 32 32 22 50 44
54 62 7 38 21 46 77 49 35 2 58 10 79 28 26 22 29 29 24 65 -4 32 -15 49 -46
77 -22 20 -46 36 -53 37 -7 1 -30 5 -51 8 -20 3 -43 2 -50 -3 -22 -18 -71 -22
-108 -9 -21 7 -45 9 -57 5z"/>
</g>
</svg>
